<svg width="63" height="62" viewBox="0 0 63 62" fill="none" xmlns="http://www.w3.org/2000/svg">
<g clip-path="url(#clip0_7841_1862)">
<path d="M60.6286 8.47593C59.7194 7.56228 58.2443 7.5607 57.3351 8.47205L29.3929 36.4304L19.3115 25.4456C18.4403 24.497 16.9675 24.4355 16.0203 25.3093C15.0739 26.1832 15.0133 27.6615 15.8844 28.611L27.608 41.3841C28.0373 41.8523 28.6382 42.1241 29.2717 42.1373C29.2888 42.1381 29.3052 42.1381 29.3215 42.1381C29.9372 42.1381 30.5295 41.8927 30.9658 41.4565L60.624 11.7807C61.5354 10.8695 61.537 9.38958 60.6286 8.47593Z" fill="#09D5A1"/>
<path d="M60.0661 28.6633C58.7797 28.6633 57.737 29.7093 57.737 31C57.737 45.5171 45.9654 57.3266 31.495 57.3266C17.0255 57.3266 5.25307 45.5171 5.25307 31C5.25307 16.4838 17.0255 4.67337 31.495 4.67337C32.7815 4.67337 33.8243 3.62736 33.8243 2.33675C33.8243 1.04601 32.7815 0 31.495 0C14.4564 0 0.594727 13.9064 0.594727 31C0.594727 48.0929 14.4564 62 31.495 62C48.5329 62 62.3954 48.0929 62.3954 31C62.3954 29.7094 61.3527 28.6633 60.0661 28.6633Z" fill="#09D5A1"/>
</g>
<defs>
<clipPath id="clip0_7841_1862">
<rect width="61.8006" height="62" fill="white" transform="translate(0.594727)"/>
</clipPath>
</defs>
</svg>
